<svg width="29" height="27" viewBox="0 0 29 27" fill="none" xmlns="http://www.w3.org/2000/svg">
<path d="M24.9999 4.43697C24.3823 3.81907 23.649 3.32891 22.8419 2.99449C22.0348 2.66007 21.1697 2.48795 20.2961 2.48795C19.4225 2.48795 18.5574 2.66007 17.7503 2.99449C16.9432 3.32891 16.2099 3.81907 15.5923 4.43697L14.3106 5.71872L13.0288 4.43697C11.7813 3.18944 10.0893 2.48859 8.32502 2.48859C6.56076 2.48859 4.86875 3.18944 3.62123 4.43697C2.3737 5.68449 1.67285 7.3765 1.67285 9.14076C1.67285 10.905 2.3737 12.597 3.62123 13.8446L4.90298 15.1263L14.3106 24.5339L23.7182 15.1263L24.9999 13.8446C25.6178 13.2269 26.108 12.4937 26.4424 11.6866C26.7768 10.8795 26.9489 10.0144 26.9489 9.14076C26.9489 8.26713 26.7768 7.40205 26.4424 6.59496C26.108 5.78787 25.6178 5.05457 24.9999 4.43697V4.43697Z" stroke="#F8FFF6" stroke-width="3.33" stroke-linecap="round" stroke-linejoin="round"/>
</svg>
