<svg width="30" height="30" viewBox="0 0 30 30" fill="none" xmlns="http://www.w3.org/2000/svg">
<path d="M26.1934 14.2016C26.1975 15.7976 25.8246 17.372 25.1051 18.7966C24.2519 20.5037 22.9403 21.9395 21.3172 22.9433C19.6941 23.9471 17.8236 24.4791 15.9151 24.4799C14.3192 24.484 12.7448 24.1111 11.3202 23.3916L4.42773 25.6891L6.72522 18.7966C6.00566 17.372 5.63277 15.7976 5.63694 14.2016C5.63767 12.2932 6.16972 10.4227 7.17349 8.7996C8.17726 7.17649 9.6131 5.86489 11.3202 5.01172C12.7448 4.29216 14.3192 3.91927 15.9151 3.92344H16.5197C19.0401 4.06248 21.4207 5.1263 23.2056 6.9112C24.9905 8.6961 26.0543 11.0767 26.1934 13.597V14.2016Z" stroke="white" stroke-width="3.33" stroke-linecap="round" stroke-linejoin="round"/>
</svg>
