<svg width="30" height="30" viewBox="0 0 30 30" fill="none" xmlns="http://www.w3.org/2000/svg">
<path d="M22.5656 10.4028C24.5691 10.4028 26.1932 8.77866 26.1932 6.77519C26.1932 4.77172 24.5691 3.14758 22.5656 3.14758C20.5621 3.14758 18.938 4.77172 18.938 6.77519C18.938 8.77866 20.5621 10.4028 22.5656 10.4028Z" stroke="white" stroke-width="3.33" stroke-linecap="round" stroke-linejoin="round"/>
<path d="M8.05534 18.8672C10.0588 18.8672 11.6829 17.243 11.6829 15.2396C11.6829 13.2361 10.0588 11.612 8.05534 11.612C6.05187 11.612 4.42773 13.2361 4.42773 15.2396C4.42773 17.243 6.05187 18.8672 8.05534 18.8672Z" stroke="white" stroke-width="3.33" stroke-linecap="round" stroke-linejoin="round"/>
<path d="M22.5656 27.3316C24.5691 27.3316 26.1932 25.7074 26.1932 23.704C26.1932 21.7005 24.5691 20.0764 22.5656 20.0764C20.5621 20.0764 18.938 21.7005 18.938 23.704C18.938 25.7074 20.5621 27.3316 22.5656 27.3316Z" stroke="white" stroke-width="3.33" stroke-linecap="round" stroke-linejoin="round"/>
<path d="M11.187 17.0655L19.4459 21.8781" stroke="white" stroke-width="3.33" stroke-linecap="round" stroke-linejoin="round"/>
<path d="M19.4338 8.60107L11.187 13.4137" stroke="white" stroke-width="3.33" stroke-linecap="round" stroke-linejoin="round"/>
</svg>
